<?xml version="1.0" encoding="UTF-8"?>
<svg id="Capa_2" xmlns="http://www.w3.org/2000/svg" version="1.1" viewBox="0 0 1215.2 350.6">
  <!-- Generator: Adobe Illustrator 30.3.0, SVG Export Plug-In . SVG Version: 2.1.3 Build 182)  -->
  <defs>
    <style>
      .st0 {
        fill: #fff;
      }
    </style>
  </defs>
  <g id="Layer_1">
    <g>
      <g>
        <polygon class="st0" points="224.2 75.3 224.2 191.1 312.1 191.1 312.1 165.2 257 165.2 257 75.3 224.2 75.3"/>
        <path class="st0" d="M323.9,122.2c-4.2,7-6.4,15-6.4,24.1s2.2,16.8,6.5,23.8c4.4,7,10.5,12.5,18.4,16.6,7.9,4,17.2,6,27.9,6s15.9-1.2,22.2-3.7c6.3-2.5,11.5-6,15.7-10.7l-16.4-17.4c-3.1,2.6-6.2,4.6-9.3,5.9s-6.9,1.9-11.4,1.9-8.8-.9-12.2-2.6c-3.4-1.7-6-4.2-7.9-7.4-.8-1.4-1.4-2.9-1.8-4.5h65.1c.1-1.2.2-2.5.3-4,.1-1.4.2-2.7.2-3.8,0-9.9-2.2-18.4-6.5-25.2-4.4-6.9-10.1-12.2-17.4-15.9s-15.3-5.6-24.1-5.6-18,2-25.4,6-13.3,9.5-17.5,16.5h0ZM350.6,131.8c1.5-3,3.7-5.4,6.5-7s6.2-2.5,10.1-2.5,7,.8,9.8,2.5c2.8,1.7,4.9,4,6.5,7,.9,1.8,1.5,3.8,1.9,5.9h-36.7c.4-2.1,1-4.1,1.8-5.9h0Z"/>
        <path class="st0" d="M499.1,109.9c-8-6.7-19.3-10.1-33.9-10.1s-14.1.9-21.3,2.8c-7.1,1.9-13.2,4.5-18.3,7.8l10.4,21.2c3.1-2.2,6.9-4,11.3-5.5s8.9-2.2,13.2-2.2c6.6,0,11.5,1.3,14.5,4.1,2.8,2.5,4.2,5.9,4.5,10.2h-17.8c-9.2,0-16.7,1.1-22.6,3.2-5.9,2.1-10.3,5.3-13.1,9.4-2.8,4.1-4.2,8.9-4.2,14.4s1.3,9.7,3.9,13.9c2.6,4.2,6.4,7.5,11.4,9.9,5,2.4,11.1,3.6,18.1,3.6s14.1-1.6,19-4.7c3.2-2.1,5.7-4.9,7.5-8.4v11.6h29.3v-49.8c0-14.2-4-24.7-12-31.4h0ZM479.6,162.4c-1.2,3.5-3.2,6.1-6,7.9s-6,2.6-9.5,2.6-6.5-.9-8.6-2.6c-2.1-1.7-3.1-3.9-3.1-6.5s1-5.1,3.1-6.6,5.6-2.3,10.7-2.3h13.6v7.6h0Z"/>
        <path class="st0" d="M562.4,149.9c0-7.8,2-13.5,6-17,4-3.5,9.2-5.2,15.6-5.2s2.2,0,3.3,0c1.1,0,2.4.2,3.8.4v-28.5c-8.5,0-15.7,1.7-21.6,5.1-3.3,1.9-6,4.3-8.4,7.2v-10.9h-30.1v89.9h31.5v-41.2h0Z"/>
        <path class="st0" d="M635.4,147.9c0-5.1.8-9.2,2.3-12.2,1.5-3.1,3.7-5.4,6.5-6.9,2.8-1.5,5.8-2.2,9.3-2.2s7.9,1.5,10.5,4.4c2.6,2.9,3.9,7.6,3.9,14v46.2h31.6v-51.3c0-9.3-1.6-16.8-4.9-22.7-3.3-5.8-7.7-10.2-13.3-13.1s-11.9-4.3-18.9-4.3-14.2,1.7-20.2,5.1c-3,1.7-5.7,3.8-8.1,6.3v-9.9h-30.1v89.9h31.5v-43.2h0Z"/>
        <rect class="st0" x="719.2" y="101.3" width="31.5" height="89.9"/>
        <path class="st0" d="M734.9,91.5c5.8,0,10.5-1.7,14-5s5.2-7.4,5.2-12.4-1.8-8.4-5.3-11.4c-3.5-3-8.2-4.5-13.9-4.5s-10.5,1.6-14,4.7c-3.5,3.1-5.2,7.1-5.2,11.8s1.7,8.7,5.2,11.9c3.5,3.2,8.1,4.8,14,4.8h0Z"/>
        <path class="st0" d="M811.2,128.8c2.8-1.5,5.8-2.2,9.3-2.2s7.9,1.5,10.5,4.4c2.6,2.9,3.9,7.6,3.9,14v46.2h31.6v-51.3c0-9.3-1.6-16.8-4.9-22.7-3.3-5.8-7.7-10.2-13.3-13.1s-11.9-4.3-18.9-4.3-14.2,1.7-20.2,5.1c-3,1.7-5.7,3.8-8.1,6.3v-9.9h-30.1v89.9h31.5v-43.2c0-5.1.8-9.2,2.3-12.2,1.5-3.1,3.7-5.4,6.5-6.9h0Z"/>
        <path class="st0" d="M970,212.5c9.1-8.2,13.7-20.8,13.7-37.7v-73.5h-29.8v10.9c-2.4-3.2-5.2-5.8-8.6-7.8-5.4-3.1-12-4.6-19.7-4.6s-15.1,1.8-21.8,5.3c-6.7,3.5-12,8.6-16.1,15.1-4,6.5-6,14.2-6,23s2,16.5,6,22.9c4,6.5,9.4,11.5,16.1,15.1,6.7,3.6,13.9,5.4,21.8,5.4s14.3-1.5,19.7-4.6c2.6-1.5,4.9-3.4,7-5.7v2.7c0,7.1-1.8,12.4-5.5,16.1s-9.7,5.6-18.1,5.6-10.9-.9-16.5-2.6c-5.6-1.7-10.2-4-14-6.9l-11.4,21.9c5.4,3.9,12,6.8,19.9,8.8,7.8,2,16.1,3,24.7,3,16.8,0,29.7-4.1,38.8-12.2h0ZM950.1,152.8c-1.7,2.8-4,4.9-6.9,6.5s-6.2,2.3-10.1,2.3-7.1-.8-10-2.3c-2.9-1.5-5.3-3.7-7-6.5-1.8-2.8-2.7-6-2.7-9.6s.9-6.8,2.7-9.6c1.8-2.8,4.1-4.9,7-6.4,2.9-1.5,6.3-2.2,10-2.2s7.2.8,10.1,2.2c2.9,1.5,5.2,3.6,6.9,6.4,1.7,2.8,2.6,6,2.6,9.6s-.9,6.8-2.6,9.6Z"/>
        <polygon class="st0" points="374.5 233.2 350.2 307.9 326.8 233.2 296.7 233.2 272.2 307.2 248.9 233.2 215.1 233.2 252.7 349.1 287.9 349.1 310.9 278.3 333.1 349.1 368.2 349.1 405.8 233.2 374.5 233.2"/>
        <path class="st0" d="M481.5,267.8c-8-6.7-19.3-10.1-33.9-10.1s-14.1.9-21.3,2.8c-7.1,1.9-13.2,4.5-18.3,7.8l10.4,21.2c3.1-2.2,6.9-4,11.3-5.5s8.9-2.1,13.2-2.1c6.6,0,11.5,1.4,14.5,4.1,2.8,2.5,4.2,5.9,4.5,10.2h-17.8c-9.2,0-16.7,1.1-22.6,3.2-5.9,2.1-10.3,5.3-13.1,9.4-2.8,4.1-4.2,8.9-4.2,14.4s1.3,9.7,3.9,13.9c2.6,4.2,6.4,7.5,11.4,9.9,5,2.4,11.1,3.6,18.1,3.6s14.1-1.6,19-4.7c3.2-2.1,5.7-4.9,7.5-8.4v11.6h29.3v-49.8c0-14.2-4-24.7-12-31.5h0ZM462.1,320.3c-1.2,3.5-3.2,6.1-6,7.9s-6,2.6-9.5,2.6-6.5-.9-8.6-2.6c-2.1-1.7-3.1-3.9-3.1-6.5s1-5.1,3.1-6.6,5.6-2.3,10.7-2.3h13.6v7.6h0Z"/>
        <path class="st0" d="M543.5,270.1v-10.9h-30.1v89.9h31.5v-41.2c0-7.8,2-13.5,6-17s9.2-5.2,15.6-5.2,2.2,0,3.3,0c1.1,0,2.4.2,3.8.4v-28.5c-8.5,0-15.7,1.7-21.6,5.1-3.3,1.9-6,4.3-8.4,7.2h0Z"/>
        <path class="st0" d="M653.3,263.2c-7.2-3.7-15.3-5.5-24.1-5.5s-18,2-25.4,6c-7.5,4-13.3,9.5-17.5,16.5s-6.4,15-6.4,24.1,2.2,16.8,6.5,23.8c4.4,7,10.5,12.5,18.4,16.5,7.9,4,17.2,6,27.9,6s15.9-1.2,22.2-3.7,11.5-6,15.7-10.7l-16.4-17.4c-3.1,2.6-6.2,4.6-9.3,5.9-3.1,1.3-6.9,1.9-11.4,1.9s-8.8-.9-12.2-2.6c-3.4-1.7-6-4.2-7.9-7.4-.8-1.4-1.4-2.9-1.8-4.5h65.2c.1-1.2.2-2.5.3-4,.1-1.4.2-2.7.2-3.8,0-9.9-2.2-18.4-6.5-25.2-4.4-6.9-10.2-12.2-17.4-15.9h0ZM611.1,295.6c.4-2.1,1-4.1,1.8-5.9,1.5-3,3.7-5.4,6.5-7,2.9-1.6,6.2-2.5,10.1-2.5s7,.8,9.8,2.5c2.8,1.7,4.9,4,6.5,7,.9,1.8,1.5,3.8,1.9,5.9h-36.7Z"/>
        <path class="st0" d="M769.1,262c-5.6-2.9-11.9-4.3-18.9-4.3s-14.2,1.7-20.2,5c-2.5,1.4-4.7,3.1-6.8,5v-41.5h-31.5v122.8h31.5v-43.2c0-5.1.8-9.2,2.3-12.2,1.5-3.1,3.7-5.4,6.5-6.9s5.8-2.2,9.3-2.2,7.9,1.5,10.5,4.4c2.6,2.9,3.9,7.6,3.9,14v46.2h31.6v-51.3c0-9.3-1.6-16.8-4.9-22.7-3.3-5.9-7.7-10.2-13.3-13.1h0Z"/>
        <path class="st0" d="M879.5,263.7c-7.7-4-16.4-6-26.2-6s-18.5,2-26.2,6c-7.6,4-13.6,9.5-18,16.5-4.4,7-6.5,15-6.5,24.1s2.2,16.9,6.5,23.9,10.3,12.5,18,16.5c7.6,4,16.3,6,26.2,6s18.6-2,26.2-6,13.7-9.5,18-16.5,6.5-15,6.5-23.9-2.2-17.1-6.5-24.1-10.4-12.5-18-16.5ZM869.5,315.7c-1.7,3.3-4,5.7-6.8,7.4-2.8,1.7-6,2.5-9.5,2.5s-6.7-.8-9.5-2.5c-2.8-1.6-5.1-4.1-6.8-7.4-1.7-3.2-2.6-7.1-2.6-11.7s.8-8.5,2.6-11.6c1.7-3.1,4-5.5,6.8-7.1,2.8-1.7,6-2.5,9.5-2.5s6.7.8,9.5,2.5c2.8,1.7,5.1,4,6.8,7.1,1.7,3.1,2.6,7,2.6,11.6s-.9,8.4-2.6,11.7Z"/>
        <path class="st0" d="M981.2,302.7c0,4.9-.7,8.9-2.2,12-1.4,3.1-3.5,5.4-6,6.9-2.6,1.4-5.4,2.1-8.5,2.1-4.8,0-8.4-1.5-11-4.5s-3.9-8-3.9-15v-45h-31.5v50.2c0,9.5,1.6,17.3,4.9,23.4,3.2,6.1,7.8,10.6,13.6,13.5s12.3,4.3,19.6,4.3,13.2-1.6,19-4.9c2.9-1.6,5.5-3.7,7.7-6.1v9.5h29.8v-89.9h-31.5v43.5h0Z"/>
        <path class="st0" d="M1099.5,300.8c-3.1-1.9-6.5-3.4-10.3-4.4-3.8-1-7.5-1.7-11.3-2.2-3.8-.5-7.3-1-10.3-1.5s-5.6-1.2-7.6-2.1c-2-.9-3-2.3-3-4.1s1.1-3.2,3.4-4.4,6-1.7,11.3-1.7,8,.4,12.4,1.3,8.8,2.6,13.2,5.3l9.4-21.5c-4.4-2.5-9.8-4.5-16.3-5.8-6.5-1.3-12.8-2-19.1-2-9.5,0-17.5,1.3-23.9,4-6.5,2.6-11.4,6.2-14.7,10.7-3.4,4.5-5.1,9.6-5.1,15.3s.9,9.3,2.8,12.6c1.9,3.3,4.4,5.9,7.5,7.8,3.2,1.9,6.7,3.3,10.5,4.4,3.9,1,7.6,1.8,11.3,2.3s7.1.9,10.3,1.3c3.2.4,5.7,1,7.6,1.9,1.9.9,2.8,2.1,2.8,3.8s-1,3.6-3.1,4.7-5.7,1.7-11,1.7-10.9-.8-16.6-2.3c-5.6-1.5-10.6-3.6-14.9-6.1l-9.3,21.5c4.4,2.6,10.2,4.9,17.5,6.6s14.7,2.6,22.3,2.6,17.9-1.3,24.5-4,11.6-6.2,14.9-10.6,5-9.3,5-14.7-1-9.4-2.9-12.7-4.4-5.9-7.5-7.8h0Z"/>
        <path class="st0" d="M1208.7,279.1c-4.4-6.9-10.2-12.2-17.4-15.9s-15.3-5.5-24.1-5.5-18,2-25.4,6c-7.4,4-13.3,9.5-17.6,16.5s-6.4,15-6.4,24.1,2.2,16.8,6.5,23.8c4.4,7,10.5,12.5,18.4,16.5,7.9,4,17.2,6,27.9,6s15.9-1.2,22.2-3.7,11.5-6,15.7-10.7l-16.4-17.4c-3.1,2.6-6.2,4.6-9.3,5.9-3.1,1.3-6.9,1.9-11.4,1.9s-8.8-.9-12.2-2.6c-3.4-1.7-6-4.2-7.9-7.4-.8-1.4-1.4-2.9-1.8-4.5h65.2c.1-1.2.2-2.5.3-4s.2-2.7.2-3.8c0-9.9-2.2-18.4-6.5-25.2h0ZM1149.1,295.6c.4-2.1.9-4.1,1.8-5.9,1.5-3,3.7-5.4,6.5-7,2.9-1.6,6.2-2.5,10.1-2.5s7,.8,9.8,2.5c2.8,1.7,4.9,4,6.5,7,.9,1.8,1.6,3.8,1.9,5.9h-36.7Z"/>
        <polygon class="st0" points="232.3 43.5 244.2 43.5 244.2 10.8 257.1 10.8 257.1 1.3 219.4 1.3 219.4 10.8 232.3 10.8 232.3 43.5"/>
        <path class="st0" d="M272.5,27.8c0-1.8.3-3.3.8-4.5s1.3-2,2.4-2.5c1-.5,2.1-.8,3.4-.8s2.9.5,3.8,1.6c.9,1.1,1.4,2.8,1.4,5.1v16.8h11.5v-18.7c0-3.4-.6-6.1-1.8-8.2-1.2-2.1-2.8-3.7-4.9-4.8-2-1-4.3-1.6-6.9-1.6s-5.2.6-7.3,1.8c-.9.5-1.7,1.1-2.5,1.9V1.3h-11.4v42.1h11.4v-15.7h0Z"/>
        <path class="st0" d="M310.4,41.8c2.9,1.5,6.2,2.2,10.1,2.2s5.8-.5,8.1-1.3c2.3-.9,4.2-2.2,5.7-3.9l-6-6.3c-1.1,1-2.2,1.7-3.4,2.1s-2.5.7-4.1.7-3.2-.3-4.5-.9c-1.2-.6-2.2-1.5-2.9-2.7-.3-.5-.5-1-.7-1.6h23.7c0-.4,0-.9.1-1.4s0-1,0-1.4c0-3.6-.8-6.7-2.4-9.2s-3.7-4.4-6.3-5.8c-2.6-1.3-5.5-2-8.8-2s-6.5.7-9.2,2.2c-2.7,1.4-4.8,3.4-6.4,6-1.5,2.5-2.3,5.5-2.3,8.8s.8,6.1,2.4,8.6c1.6,2.5,3.8,4.6,6.7,6h0ZM315.7,19.3c1-.6,2.3-.9,3.7-.9s2.5.3,3.5.9,1.8,1.5,2.4,2.6c.3.6.6,1.4.7,2.1h-13.3c.1-.8.3-1.5.7-2.1.5-1.1,1.3-2,2.4-2.6h0Z"/>
      </g>
      <path class="st0" d="M192,0v349.2l-52.9-15.7c-6.9-2-11.7-8.4-11.7-15.6v-166.2c0-6.5-6.2-11.2-12.4-9.5l-50.4,14c-4.9,1.4-8.3,5.8-8.3,10.9v131.8c0,5-4.8,8.6-9.7,7.2l-36.9-10.9c-5.8-1.7-9.7-7-9.7-13V112.8c0-8.8,4.9-17,12.8-21L192,0Z"/>
    </g>
  </g>
</svg>