<?xml version="1.0" encoding="UTF-8"?>
<svg id="Capa_2" data-name="Capa 2" xmlns="http://www.w3.org/2000/svg" viewBox="0 0 1215.25 350.57">
  <defs>
    <style>
      .cls-1 {
        fill: #096c29;
      }
    </style>
  </defs>
  <g id="Layer_1" data-name="Layer 1">
    <g>
      <g>
        <polygon points="224.21 75.28 224.21 191.15 312.1 191.15 312.1 165.16 256.98 165.16 256.98 75.28 224.21 75.28"/>
        <path d="M323.94,122.2c-4.25,7.01-6.37,15.04-6.37,24.09s2.18,16.75,6.54,23.75c4.36,7.01,10.48,12.53,18.37,16.55,7.89,4.03,17.19,6.04,27.89,6.04,8.5,0,15.89-1.24,22.18-3.72,6.29-2.48,11.53-6.04,15.73-10.68l-16.39-17.38c-3.09,2.65-6.18,4.61-9.27,5.88-3.09,1.27-6.9,1.9-11.42,1.9-4.75,0-8.83-.85-12.25-2.57-3.42-1.71-6.04-4.16-7.86-7.37-.78-1.38-1.39-2.87-1.83-4.47h65.15c.11-1.21.22-2.54.33-3.97.11-1.43.17-2.7.17-3.81,0-9.93-2.18-18.35-6.54-25.24-4.36-6.9-10.15-12.19-17.38-15.89-7.23-3.7-15.26-5.55-24.09-5.55-9.49,0-17.96,1.99-25.41,5.96-7.45,3.97-13.3,9.46-17.55,16.47ZM350.59,131.81c1.49-3.03,3.67-5.38,6.54-7.04,2.87-1.66,6.23-2.48,10.1-2.48s7.01.83,9.77,2.48c2.76,1.66,4.94,4,6.54,7.04.94,1.79,1.55,3.76,1.9,5.88h-36.66c.36-2.13.95-4.1,1.82-5.88Z"/>
        <path d="M499.07,109.87c-8-6.73-19.28-10.1-33.85-10.1-7.06,0-14.15.94-21.27,2.81-7.12,1.88-13.22,4.47-18.29,7.78l10.43,21.19c3.09-2.21,6.87-4.03,11.34-5.46,4.47-1.43,8.86-2.15,13.16-2.15,6.62,0,11.45,1.35,14.48,4.06,2.76,2.46,4.25,5.86,4.5,10.18h-17.83c-9.16,0-16.69,1.08-22.6,3.23-5.9,2.15-10.26,5.27-13.08,9.35-2.81,4.08-4.22,8.89-4.22,14.4,0,5.08,1.3,9.71,3.89,13.9,2.59,4.2,6.4,7.51,11.42,9.93,5.02,2.43,11.06,3.64,18.13,3.64,7.83,0,14.15-1.57,18.95-4.72,3.23-2.11,5.73-4.93,7.53-8.42v11.64h29.3v-49.83c0-14.24-4-24.72-12-31.45ZM479.62,162.35c-1.22,3.53-3.23,6.15-6.04,7.86-2.81,1.71-5.99,2.57-9.52,2.57s-6.51-.85-8.61-2.57c-2.1-1.71-3.15-3.89-3.15-6.54,0-2.87,1.02-5.08,3.06-6.62,2.04-1.54,5.6-2.32,10.68-2.32h13.57v7.61Z"/>
        <path d="M562.39,149.93c0-7.83,1.99-13.49,5.96-16.97,3.97-3.48,9.16-5.21,15.56-5.21,1.1,0,2.21.03,3.31.08,1.1.06,2.37.19,3.81.41v-28.47c-8.5,0-15.7,1.71-21.6,5.13-3.28,1.9-6.05,4.33-8.36,7.25v-10.89h-30.13v89.88h31.45v-41.22Z"/>
        <path d="M635.39,147.94c0-5.07.77-9.16,2.32-12.25,1.54-3.09,3.7-5.38,6.46-6.87,2.76-1.49,5.85-2.23,9.27-2.23,4.41,0,7.92,1.46,10.51,4.39,2.59,2.93,3.89,7.59,3.89,13.99v46.18h31.62v-51.32c0-9.27-1.63-16.83-4.88-22.68-3.26-5.85-7.7-10.21-13.33-13.08-5.63-2.87-11.92-4.3-18.87-4.3-7.51,0-14.24,1.68-20.19,5.05-3.03,1.71-5.74,3.83-8.11,6.33v-9.89h-30.13v89.88h31.45v-43.2Z"/>
        <rect x="719.15" y="101.26" width="31.45" height="89.88"/>
        <path d="M734.87,91.5c5.85,0,10.51-1.66,13.99-4.97,3.48-3.31,5.21-7.45,5.21-12.42,0-4.64-1.77-8.44-5.3-11.42-3.53-2.98-8.17-4.47-13.91-4.47s-10.51,1.57-13.99,4.72c-3.48,3.14-5.21,7.09-5.21,11.84s1.74,8.72,5.21,11.92c3.48,3.2,8.14,4.8,13.99,4.8Z"/>
        <path d="M811.18,128.83c2.76-1.49,5.85-2.23,9.27-2.23,4.41,0,7.92,1.46,10.51,4.39,2.59,2.93,3.89,7.59,3.89,13.99v46.18h31.62v-51.32c0-9.27-1.63-16.83-4.88-22.68-3.26-5.85-7.7-10.21-13.33-13.08-5.63-2.87-11.92-4.3-18.87-4.3-7.51,0-14.24,1.68-20.19,5.05-3.03,1.71-5.74,3.83-8.11,6.33v-9.89h-30.13v89.88h31.45v-43.2c0-5.07.77-9.16,2.32-12.25,1.54-3.09,3.7-5.38,6.46-6.87Z"/>
        <path d="M970.01,212.5c9.1-8.17,13.66-20.75,13.66-37.74v-73.5h-29.8v10.9c-2.36-3.24-5.23-5.82-8.61-7.75-5.41-3.09-11.98-4.64-19.7-4.64s-15.09,1.77-21.77,5.3c-6.68,3.53-12.03,8.55-16.06,15.06-4.03,6.51-6.04,14.18-6.04,23.01s2.01,16.47,6.04,22.93c4.03,6.46,9.38,11.48,16.06,15.06,6.68,3.59,13.93,5.38,21.77,5.38s14.29-1.54,19.7-4.64c2.62-1.5,4.94-3.4,6.95-5.7v2.72c0,7.06-1.85,12.44-5.55,16.14-3.7,3.7-9.74,5.55-18.13,5.55-5.41,0-10.9-.86-16.47-2.57-5.57-1.71-10.24-4-13.99-6.87l-11.42,21.85c5.41,3.86,12.03,6.79,19.86,8.77,7.83,1.99,16.06,2.98,24.66,2.98,16.77,0,29.71-4.08,38.82-12.25ZM950.14,152.75c-1.71,2.76-4,4.91-6.87,6.46-2.87,1.55-6.24,2.32-10.1,2.32s-7.09-.77-10.01-2.32c-2.93-1.54-5.27-3.7-7.04-6.46-1.77-2.76-2.65-5.96-2.65-9.6s.88-6.84,2.65-9.6c1.76-2.76,4.11-4.88,7.04-6.37,2.92-1.49,6.26-2.23,10.01-2.23s7.23.75,10.1,2.23c2.87,1.49,5.16,3.62,6.87,6.37,1.71,2.76,2.57,5.96,2.57,9.6s-.86,6.84-2.57,9.6Z"/>
        <polygon points="374.51 233.21 350.24 307.86 326.84 233.21 296.71 233.21 272.18 307.16 248.87 233.21 215.1 233.21 252.68 349.08 287.94 349.08 310.88 278.34 333.13 349.08 368.22 349.08 405.8 233.21 374.51 233.21"/>
        <path d="M481.53,267.81c-8-6.73-19.28-10.1-33.85-10.1-7.06,0-14.15.94-21.27,2.81-7.12,1.88-13.22,4.47-18.29,7.78l10.43,21.19c3.09-2.21,6.87-4.03,11.34-5.46,4.47-1.43,8.86-2.15,13.16-2.15,6.62,0,11.45,1.35,14.48,4.06,2.76,2.46,4.25,5.86,4.5,10.18h-17.83c-9.16,0-16.69,1.08-22.6,3.23-5.9,2.15-10.26,5.27-13.08,9.35-2.81,4.08-4.22,8.89-4.22,14.4,0,5.08,1.3,9.71,3.89,13.9,2.59,4.2,6.4,7.51,11.42,9.93,5.02,2.43,11.06,3.64,18.13,3.64,7.83,0,14.15-1.57,18.95-4.72,3.23-2.11,5.73-4.93,7.53-8.42v11.64h29.3v-49.83c0-14.24-4-24.72-12-31.45ZM462.08,320.28c-1.22,3.53-3.23,6.15-6.04,7.86-2.81,1.71-5.99,2.57-9.52,2.57s-6.51-.85-8.61-2.57c-2.1-1.71-3.15-3.89-3.15-6.54,0-2.87,1.02-5.08,3.06-6.62,2.04-1.54,5.6-2.32,10.68-2.32h13.57v7.61Z"/>
        <path d="M543.52,270.09v-10.89h-30.13v89.88h31.45v-41.22c0-7.83,1.99-13.49,5.96-16.97s9.16-5.21,15.56-5.21c1.1,0,2.21.03,3.31.08,1.1.06,2.37.19,3.81.41v-28.47c-8.5,0-15.7,1.71-21.6,5.13-3.28,1.9-6.05,4.33-8.36,7.25Z"/>
        <path d="M653.35,263.25c-7.23-3.7-15.26-5.55-24.09-5.55-9.49,0-17.96,1.99-25.41,5.96-7.45,3.97-13.3,9.46-17.55,16.47-4.25,7.01-6.37,15.04-6.37,24.09s2.18,16.75,6.54,23.75c4.36,7.01,10.48,12.53,18.37,16.55,7.89,4.03,17.19,6.04,27.89,6.04,8.5,0,15.89-1.24,22.18-3.72,6.29-2.48,11.53-6.04,15.73-10.68l-16.39-17.38c-3.09,2.65-6.18,4.61-9.27,5.88-3.09,1.27-6.9,1.9-11.42,1.9-4.75,0-8.83-.85-12.25-2.57-3.42-1.71-6.04-4.16-7.86-7.37-.78-1.38-1.39-2.87-1.83-4.47h65.15c.11-1.21.22-2.54.33-3.97.11-1.43.17-2.7.17-3.81,0-9.93-2.18-18.35-6.54-25.24-4.36-6.89-10.15-12.19-17.38-15.89ZM611.14,295.62c.36-2.13.95-4.1,1.82-5.88,1.49-3.03,3.67-5.38,6.54-7.04,2.87-1.65,6.23-2.48,10.1-2.48s7.01.83,9.77,2.48c2.76,1.66,4.94,4,6.54,7.04.94,1.79,1.55,3.76,1.9,5.88h-36.66Z"/>
        <path d="M769.14,262.01c-5.63-2.87-11.92-4.3-18.87-4.3-7.51,0-14.24,1.68-20.19,5.05-2.49,1.41-4.74,3.09-6.79,5.03v-41.53h-31.45v122.83h31.45v-43.2c0-5.07.77-9.16,2.32-12.25,1.54-3.09,3.7-5.38,6.46-6.87,2.76-1.49,5.85-2.23,9.27-2.23,4.41,0,7.92,1.46,10.51,4.39,2.59,2.93,3.89,7.59,3.89,13.99v46.18h31.62v-51.32c0-9.27-1.63-16.83-4.88-22.68-3.26-5.85-7.7-10.21-13.33-13.08Z"/>
        <path d="M879.47,263.67c-7.67-3.97-16.42-5.96-26.24-5.96s-18.54,1.99-26.15,5.96c-7.61,3.97-13.6,9.46-17.96,16.47-4.36,7.01-6.54,15.04-6.54,24.09s2.18,16.91,6.54,23.92c4.36,7.01,10.35,12.5,17.96,16.47,7.61,3.97,16.33,5.96,26.15,5.96s18.57-1.99,26.24-5.96c7.67-3.97,13.68-9.46,18.04-16.47,4.36-7.01,6.54-14.98,6.54-23.92s-2.18-17.08-6.54-24.09c-4.36-7.01-10.37-12.5-18.04-16.47ZM869.53,315.73c-1.71,3.26-3.97,5.71-6.79,7.37-2.81,1.66-5.99,2.48-9.52,2.48s-6.7-.83-9.52-2.48c-2.81-1.65-5.08-4.11-6.79-7.37-1.71-3.25-2.57-7.14-2.57-11.67s.85-8.5,2.57-11.59c1.71-3.09,3.97-5.46,6.79-7.12,2.81-1.66,5.99-2.48,9.52-2.48s6.7.83,9.52,2.48c2.81,1.66,5.07,4.03,6.79,7.12,1.71,3.09,2.57,6.95,2.57,11.59s-.86,8.42-2.57,11.67Z"/>
        <path d="M981.19,302.73c0,4.86-.72,8.86-2.15,12-1.44,3.14-3.45,5.44-6.04,6.87-2.59,1.44-5.44,2.15-8.53,2.15-4.75,0-8.42-1.52-11.01-4.55-2.59-3.03-3.89-8.03-3.89-14.98v-45.03h-31.45v50.16c0,9.49,1.63,17.3,4.88,23.42,3.25,6.12,7.78,10.62,13.57,13.49,5.79,2.87,12.33,4.3,19.62,4.3,6.84,0,13.16-1.63,18.95-4.88,2.89-1.62,5.45-3.66,7.7-6.12v9.52h29.8v-89.88h-31.45v43.54Z"/>
        <path d="M1099.54,300.83c-3.09-1.93-6.51-3.39-10.26-4.39-3.75-.99-7.53-1.74-11.34-2.23-3.81-.5-7.26-.99-10.35-1.49-3.09-.5-5.63-1.21-7.61-2.15-1.99-.94-2.98-2.29-2.98-4.06s1.13-3.23,3.39-4.39c2.26-1.16,6.04-1.74,11.34-1.74,3.86,0,8,.44,12.41,1.32,4.41.88,8.83,2.65,13.24,5.3l9.44-21.52c-4.42-2.54-9.85-4.47-16.3-5.79-6.46-1.32-12.83-1.99-19.12-1.99-9.49,0-17.46,1.32-23.92,3.97-6.46,2.65-11.37,6.21-14.73,10.68-3.37,4.47-5.05,9.58-5.05,15.31,0,5.08.94,9.27,2.81,12.58,1.88,3.31,4.39,5.91,7.53,7.78,3.15,1.88,6.65,3.34,10.51,4.39,3.86,1.05,7.64,1.82,11.34,2.32,3.7.5,7.14.94,10.35,1.32,3.2.39,5.74,1.02,7.61,1.9,1.88.89,2.81,2.15,2.81,3.81,0,1.99-1.02,3.56-3.06,4.72-2.04,1.16-5.71,1.74-11.01,1.74s-10.92-.77-16.55-2.32c-5.63-1.54-10.59-3.58-14.9-6.12l-9.27,21.52c4.41,2.65,10.23,4.86,17.46,6.62,7.23,1.76,14.65,2.65,22.26,2.65,9.71,0,17.88-1.32,24.5-3.97,6.62-2.65,11.59-6.18,14.9-10.59,3.31-4.41,4.97-9.32,4.97-14.73s-.97-9.41-2.9-12.66c-1.93-3.25-4.44-5.85-7.53-7.78Z"/>
        <path d="M1208.71,279.14c-4.36-6.89-10.15-12.19-17.38-15.89-7.23-3.7-15.26-5.55-24.09-5.55-9.49,0-17.96,1.99-25.41,5.96-7.45,3.97-13.3,9.46-17.55,16.47-4.25,7.01-6.37,15.04-6.37,24.09s2.18,16.75,6.54,23.75c4.36,7.01,10.48,12.53,18.37,16.55,7.89,4.03,17.19,6.04,27.89,6.04,8.5,0,15.89-1.24,22.18-3.72,6.29-2.48,11.53-6.04,15.73-10.68l-16.39-17.38c-3.09,2.65-6.18,4.61-9.27,5.88-3.09,1.27-6.9,1.9-11.42,1.9-4.75,0-8.83-.85-12.25-2.57-3.42-1.71-6.04-4.16-7.86-7.37-.78-1.38-1.39-2.87-1.83-4.47h65.15c.11-1.21.22-2.54.33-3.97.11-1.43.17-2.7.17-3.81,0-9.93-2.18-18.35-6.54-25.24ZM1149.12,295.62c.36-2.13.95-4.1,1.82-5.88,1.49-3.03,3.67-5.38,6.54-7.04,2.87-1.65,6.23-2.48,10.1-2.48s7.01.83,9.77,2.48c2.76,1.66,4.94,4,6.54,7.04.94,1.79,1.55,3.76,1.9,5.88h-36.66Z"/>
        <polygon points="232.32 43.46 244.24 43.46 244.24 10.78 257.12 10.78 257.12 1.33 219.38 1.33 219.38 10.78 232.32 10.78 232.32 43.46"/>
        <path d="M272.47,27.75c0-1.84.28-3.33.84-4.45.56-1.12,1.34-1.96,2.35-2.5,1-.54,2.13-.81,3.37-.81,1.6,0,2.88.53,3.82,1.6.94,1.06,1.41,2.76,1.41,5.09v16.79h11.5v-18.66c0-3.37-.59-6.12-1.78-8.25-1.18-2.13-2.8-3.71-4.85-4.76-2.05-1.04-4.33-1.57-6.86-1.57-2.73,0-5.18.61-7.34,1.84-.91.51-1.72,1.15-2.47,1.86V1.33h-11.44v42.14h11.44v-15.71Z"/>
        <path d="M310.36,41.81c2.87,1.47,6.25,2.2,10.14,2.2,3.09,0,5.78-.45,8.07-1.35,2.29-.9,4.19-2.2,5.72-3.88l-5.96-6.32c-1.12.96-2.25,1.68-3.37,2.14-1.12.46-2.51.69-4.15.69-1.73,0-3.21-.31-4.45-.93-1.24-.62-2.2-1.51-2.86-2.68-.28-.5-.49-1.05-.66-1.63h23.68c.04-.44.08-.92.12-1.44.04-.52.06-.98.06-1.38,0-3.61-.79-6.67-2.38-9.18-1.59-2.51-3.69-4.43-6.32-5.78-2.63-1.34-5.55-2.02-8.76-2.02-3.45,0-6.53.72-9.24,2.17-2.71,1.44-4.84,3.44-6.38,5.99-1.55,2.55-2.32,5.47-2.32,8.76s.79,6.09,2.38,8.64c1.58,2.55,3.81,4.56,6.68,6.02ZM315.68,19.33c1.04-.6,2.27-.9,3.67-.9s2.55.3,3.55.9c1,.6,1.8,1.45,2.38,2.56.34.65.56,1.37.69,2.14h-13.33c.13-.77.34-1.49.66-2.14.54-1.1,1.33-1.96,2.38-2.56Z"/>
      </g>
      <path class="cls-1" d="M191.97,0v349.21s-52.91-15.67-52.91-15.67c-6.92-2.05-11.67-8.41-11.67-15.63v-166.18c0-6.5-6.19-11.21-12.45-9.47l-50.39,13.96c-4.91,1.36-8.32,5.83-8.32,10.93v131.79c0,5.03-4.84,8.64-9.65,7.21l-36.87-10.92C3.95,293.53,0,288.25,0,282.24V112.77c0-8.85,4.95-16.95,12.83-20.99L191.97,0Z"/>
    </g>
  </g>
</svg>